<svg xmlns="http://www.w3.org/2000/svg" xmlns:xlink="http://www.w3.org/1999/xlink" width="500" zoomAndPan="magnify" viewBox="0 0 375 374.999991" height="500" preserveAspectRatio="xMidYMid meet" version="1.0"><defs><clipPath id="0e5df65f27"><path d="M 1.171875 0.488281 L 139 0.488281 L 139 138 L 1.171875 138 Z M 1.171875 0.488281 " clip-rule="nonzero"/></clipPath><clipPath id="b91350301e"><path d="M 66 65 L 203.234375 65 L 203.234375 202.550781 L 66 202.550781 Z M 66 65 " clip-rule="nonzero"/></clipPath><clipPath id="ada08d9624"><path d="M 151.554688 138.40625 L 173.699219 138.40625 L 173.699219 195.613281 L 151.554688 195.613281 Z M 151.554688 138.40625 " clip-rule="nonzero"/></clipPath><clipPath id="380e289a5d"><path d="M 151.554688 145 L 170 145 L 170 177 L 151.554688 177 Z M 151.554688 145 " clip-rule="nonzero"/></clipPath><clipPath id="2ee27aafa9"><rect x="0" width="204" y="0" height="204"/></clipPath></defs><rect x="-37.5" width="450" fill="#ffffff" y="-37.499999" height="449.999989" fill-opacity="1"/><rect x="-37.5" width="450" fill="#ffffff" y="-37.499999" height="449.999989" fill-opacity="1"/><g transform="matrix(1, 0, 0, 1, 79, 71)"><g clip-path="url(#2ee27aafa9)"><g clip-path="url(#0e5df65f27)"><path fill="#ec7414" d="M 20.492188 0.488281 C 9.808594 0.488281 1.171875 9.074219 1.171875 19.761719 L 1.171875 118.378906 C 1.171875 129.066406 9.808594 137.652344 20.492188 137.652344 L 87.609375 137.652344 C 88.542969 130.710938 86.65625 123.425781 82.421875 118.328125 C 79.386719 114.667969 78.671875 112.074219 79.269531 107.136719 C 79.996094 101.195312 79.714844 100.730469 75.660156 100.730469 C 73.253906 100.730469 70.546875 99.460938 69.660156 97.882812 C 68.175781 95.226562 67.238281 95.171875 57.203125 97.574219 C 43.226562 100.925781 37.980469 99.480469 29.035156 89.742188 C 22.6875 82.832031 21.890625 81.015625 21.207031 71.535156 C 20.308594 59.125 23.066406 51.621094 30.304688 46.769531 C 33 44.964844 35.234375 42.582031 35.238281 41.480469 C 35.25 37.421875 44.035156 28.917969 48.253906 28.917969 C 50.570312 28.917969 54.710938 27.769531 57.40625 26.375 C 60.105469 24.980469 65.246094 24.015625 68.847656 24.1875 C 72.449219 24.359375 76.539062 24.152344 77.949219 23.730469 C 79.78125 23.183594 80.480469 24.210938 80.441406 27.441406 C 80.394531 31.304688 81.839844 32.664062 90.40625 36.597656 C 99.820312 40.917969 100.554688 40.984375 102.609375 38.171875 C 104.59375 35.457031 105.78125 35.417969 115.167969 37.410156 C 120.855469 38.617188 126.257812 39.121094 127.21875 38.527344 C 128.179688 37.933594 129.550781 39.195312 130.21875 41.328125 C 131.679688 45.988281 134.875 52.921875 138.355469 59.585938 L 138.355469 19.761719 C 138.355469 9.074219 129.71875 0.488281 119.03125 0.488281 Z M 20.492188 0.488281 " fill-opacity="1" fill-rule="nonzero"/></g><g clip-path="url(#b91350301e)"><path fill="#00227c" d="M 141.609375 65.585938 C 144.734375 71.089844 147.75 75.726562 149.640625 77.539062 C 152.527344 80.300781 154.878906 83.621094 154.878906 84.914062 C 154.878906 86.726562 156.613281 87.023438 162.558594 86.132812 C 168.871094 85.1875 170.234375 85.421875 170.234375 87.609375 C 170.234375 91.21875 163.335938 102.921875 160.066406 104.847656 C 153.355469 108.804688 142.5625 121.363281 143.386719 124.226562 C 143.867188 125.882812 145.273438 130.957031 146.539062 135.515625 L 148.828125 143.808594 L 142.472656 148.945312 C 137.066406 153.28125 136.066406 155.089844 136.066406 160.742188 C 136.066406 165.535156 135.363281 167.40625 133.523438 167.40625 C 132.070312 167.40625 130.929688 168.964844 130.929688 170.964844 C 130.929688 172.90625 130.238281 175.824219 129.355469 177.476562 C 126.71875 182.398438 115.226562 189.167969 107.59375 190.292969 C 100.558594 191.328125 100.398438 191.273438 98.339844 184.953125 C 97.1875 181.425781 94.84375 176.71875 93.101562 174.472656 C 91.359375 172.230469 89.886719 168.339844 89.847656 165.878906 C 89.804688 163.421875 88.691406 158.347656 87.355469 154.589844 C 85.464844 149.273438 85.339844 146.382812 86.796875 141.519531 C 89.1875 133.535156 87.453125 124.386719 82.421875 118.328125 C 79.386719 114.667969 78.671875 112.074219 79.269531 107.136719 C 79.996094 101.195312 79.714844 100.730469 75.660156 100.730469 C 73.253906 100.730469 70.546875 99.460938 69.660156 97.882812 C 68.867188 96.460938 68.214844 95.84375 66.253906 95.898438 L 66.253906 183.476562 C 66.253906 194.164062 74.890625 202.75 85.574219 202.75 L 184.117188 202.75 C 194.800781 202.75 203.4375 194.164062 203.4375 183.476562 L 203.4375 84.863281 C 203.4375 74.171875 194.800781 65.585938 184.117188 65.585938 Z M 141.609375 65.585938 " fill-opacity="1" fill-rule="nonzero"/></g><path fill="#ec7414" d="M 66.480469 95.800781 C 66.402344 95.828125 66.300781 95.917969 66.246094 95.921875 L 66.246094 137.625 L 87.625 137.625 C 88.558594 130.683594 86.632812 123.417969 82.398438 118.316406 C 79.363281 114.65625 78.648438 112.085938 79.25 107.148438 C 79.972656 101.207031 79.742188 100.734375 75.6875 100.734375 C 73.28125 100.734375 70.574219 99.460938 69.6875 97.882812 C 68.925781 96.515625 68.273438 95.808594 66.480469 95.800781 Z M 66.480469 95.800781 " fill-opacity="1" fill-rule="nonzero"/><g clip-path="url(#ada08d9624)"><path fill="#ffffff" d="M 83.710938 128.734375 C 83.773438 128.945312 83.855469 128.976562 83.964844 128.824219 C 84.105469 129.042969 83.722656 129.683594 83.765625 129.988281 C 83.824219 130.453125 84.304688 130.96875 84.546875 131.355469 C 85.097656 132.238281 85.726562 133.164062 85.835938 134.226562 C 85.996094 135.734375 85.292969 136.71875 85.96875 138.191406 C 86.480469 139.316406 87.152344 140.144531 87.019531 141.464844 C 86.789062 143.738281 84.714844 145.386719 83.796875 147.378906 C 83.203125 148.667969 82.84375 150.074219 82.628906 151.476562 C 82.539062 152.035156 82.460938 152.609375 82.4375 153.175781 C 82.429688 153.367188 82.597656 154.804688 82.183594 153.964844 C 82.390625 153.980469 82.273438 156.449219 82.3125 156.746094 C 82.550781 158.402344 83.804688 159.554688 84.695312 160.886719 C 85.871094 162.644531 86.953125 164.679688 87.953125 166.542969 C 88.925781 168.351562 88.585938 170.601562 89.105469 172.566406 C 89.601562 174.453125 89.65625 176.492188 90.375 178.3125 C 91.105469 180.167969 92.621094 181.511719 93.652344 183.183594 C 94.730469 184.933594 95.824219 186.984375 96.421875 188.957031 C 96.578125 189.472656 97.136719 191.605469 95.929688 191.113281 C 95.757812 191.382812 96.769531 194.839844 96.996094 194.859375 C 97.195312 194.875 96.808594 194.269531 97.59375 194.523438 C 98.414062 194.789062 98.925781 195.503906 99.914062 195.570312 C 102.023438 195.71875 103.679688 194.21875 105.65625 194.167969 C 107.425781 194.121094 109.4375 194.835938 111.160156 194.46875 C 111.96875 194.296875 111.730469 194.070312 112.285156 193.816406 C 112.796875 193.582031 113.410156 193.582031 113.980469 193.457031 C 117.613281 192.648438 120.695312 189.429688 122.777344 186.519531 C 123.355469 185.710938 123.839844 184.816406 124.515625 184.085938 C 125.214844 183.332031 126.160156 182.871094 126.832031 182.09375 C 128.121094 180.609375 128.308594 178.472656 128.75 176.632812 C 128.421875 177.257812 128.101562 176.667969 127.851562 176.371094 C 128.441406 176.425781 129.324219 175.027344 129.898438 174.75 C 130.699219 174.359375 131.628906 174.34375 132.425781 173.945312 C 132.789062 173.765625 135.503906 172.046875 134.765625 171.640625 C 134.527344 171.8125 134.359375 172.035156 134.269531 172.3125 C 134.257812 170.847656 135.175781 169.566406 135.160156 168.101562 C 135.144531 166.621094 134.25 165.347656 134.097656 163.910156 C 133.839844 161.519531 136.3125 161.121094 137.414062 159.4375 C 137.695312 160.40625 138.332031 158.914062 138.523438 158.660156 C 139.355469 157.535156 140.644531 156.964844 141.894531 156.433594 C 144.382812 155.371094 147.046875 154.101562 148.078125 151.398438 C 148.695312 149.785156 148.230469 148.058594 148.324219 146.378906 C 148.417969 144.714844 149.03125 143.15625 149.179688 141.539062 C 149.289062 140.375 148.601562 139.726562 148.054688 138.765625 C 147.222656 137.296875 146.851562 135.648438 146.972656 133.96875 C 147.082031 132.460938 147.066406 131.789062 146.386719 130.4375 C 145.722656 129.105469 146.035156 128.292969 146.625 126.949219 C 147.953125 123.945312 149.554688 121.53125 151.808594 119.160156 C 153.929688 116.929688 155.660156 114.449219 157.894531 112.296875 C 160.050781 110.214844 162.742188 108.761719 164.535156 106.304688 C 165.734375 104.660156 166.917969 102.921875 168.003906 101.195312 C 168.886719 99.796875 169.34375 98.214844 170.019531 96.714844 C 170.785156 95.019531 171.847656 93.40625 172.105469 91.527344 C 172.222656 90.6875 171.925781 88.96875 173.199219 88.917969 C 172.261719 88.195312 173.382812 85.019531 171.675781 85.191406 C 170.957031 85.265625 169.867188 86.367188 169.078125 86.644531 C 168.070312 87 166.902344 87.148438 166.332031 88.195312 C 166.222656 86.875 164.859375 87.328125 164.066406 87.667969 C 162.761719 88.222656 161.582031 88.222656 160.234375 88.570312 C 158.707031 88.96875 157.796875 89.675781 156.414062 88.46875 C 155.550781 87.714844 155.050781 86.519531 153.683594 86.933594 C 153.511719 86.070312 154.871094 85.917969 155.097656 85.195312 C 155.449219 84.078125 153.878906 83.257812 153.210938 82.679688 C 152.082031 81.703125 151.222656 80.414062 149.988281 79.5625 C 148.90625 78.816406 147.414062 78.515625 146.71875 77.308594 C 146.621094 77.628906 146.570312 77.953125 146.550781 78.289062 C 145.929688 77.257812 145.347656 76.214844 144.925781 75.089844 C 144.527344 74.03125 144.316406 72.855469 143.617188 71.9375 C 142.222656 70.113281 140.390625 69.914062 139.824219 67.398438 C 139.367188 65.351562 139.351562 63.023438 137.726562 61.464844 C 136.992188 60.757812 135.914062 60.421875 135.347656 59.539062 C 135.121094 59.183594 134.859375 58.644531 134.960938 58.21875 C 135.128906 57.535156 135.175781 58.164062 135.476562 57.761719 C 135.617188 57.570312 133.378906 55.1875 133.132812 54.871094 C 131.523438 52.753906 130.542969 50.261719 128.878906 48.175781 C 128.121094 47.222656 127.363281 46.320312 126.984375 45.140625 C 126.636719 44.0625 126.667969 42.890625 126.011719 41.925781 C 125.363281 40.972656 122.929688 39.082031 122.226562 40.933594 C 123.070312 40.433594 121.417969 41.074219 121.128906 41.191406 C 119.738281 41.746094 118.554688 41.914062 117.066406 41.660156 C 113.761719 41.097656 110.355469 40.402344 107.242188 39.140625 C 105.324219 38.367188 102.03125 36.777344 100.769531 39.375 C 99.957031 41.042969 100.757812 44.753906 97.597656 43.683594 C 96.296875 43.242188 95.183594 42.609375 93.828125 42.265625 C 92.40625 41.902344 91.574219 41.5 90.574219 40.4375 C 88.570312 38.300781 86.472656 38.636719 83.832031 37.953125 C 81.90625 37.453125 78.761719 36.058594 80.902344 33.960938 C 82.011719 32.875 81.449219 32.730469 81.359375 31.386719 C 81.292969 30.453125 82.3125 29.601562 81.660156 28.851562 C 81.171875 28.285156 79.363281 28.066406 78.691406 28.09375 C 76.976562 28.167969 75.25 28.617188 73.539062 28.78125 C 70.257812 29.101562 67.070312 28.582031 63.8125 29.332031 C 60.976562 29.984375 58.28125 31.78125 55.402344 32.046875 C 54.332031 32.148438 53.183594 32.117188 52.132812 31.894531 C 51.046875 31.664062 50.113281 30.425781 49.085938 30.398438 C 47.875 30.363281 47.042969 32.027344 46.46875 32.859375 C 45.738281 33.921875 44.910156 34.730469 43.828125 35.433594 C 41.511719 36.949219 39.425781 37.980469 38.402344 40.726562 C 37.464844 43.242188 36.972656 45.558594 34.164062 46.5625 C 32.886719 47.023438 31.542969 47.179688 30.457031 48.0625 C 29.367188 48.945312 28.550781 50.246094 27.644531 51.304688 C 25.222656 54.148438 22.96875 57.117188 20.773438 60.132812 C 19.878906 61.359375 19.230469 62.460938 19.75 63.992188 C 20.3125 65.652344 20.496094 66.679688 20.40625 68.472656 C 20.320312 70.128906 20.074219 71.753906 19.480469 73.3125 C 18.855469 74.972656 17.796875 76.515625 17.394531 78.257812 C 17.132812 79.425781 17.140625 80.914062 18.273438 81.625 C 18.652344 81.863281 20.449219 82.457031 20.707031 81.808594 C 20.125 81.835938 19.550781 82.042969 18.980469 82.0625 C 19.386719 82.050781 17.59375 82.035156 17.878906 81.933594 C 17.257812 82.152344 17.160156 82.941406 17.308594 83.667969 C 17.488281 84.519531 18.171875 85.476562 19.058594 85.679688 C 19.722656 85.828125 20.8125 85.113281 21.375 85.605469 C 20.585938 84.917969 18.933594 87.917969 20.84375 87.632812 C 20.699219 87.796875 20.613281 87.980469 20.585938 88.195312 C 20.636719 88.355469 21.441406 87.972656 21.5625 87.976562 C 21.050781 89.722656 23.574219 91.15625 24.34375 92.4375 C 24.890625 93.347656 24.996094 94.457031 25.46875 95.40625 C 26.058594 96.578125 27.023438 97.304688 28.035156 98.085938 C 30.015625 99.617188 31.769531 101.523438 33.871094 102.890625 C 36.457031 104.578125 38.589844 103.746094 41.308594 102.941406 C 44.050781 102.132812 46.21875 102.722656 48.914062 103.230469 C 50.425781 103.515625 51.191406 102.835938 52.550781 102.398438 C 53.773438 102.003906 54.921875 101.523438 56.125 101.066406 C 58.546875 100.144531 60.699219 99.339844 63.359375 99.523438 C 64.421875 99.597656 65.308594 99.878906 66.117188 100.585938 C 66.289062 100.738281 67.367188 102.050781 67.484375 101.949219 C 66.773438 102.304688 67.613281 103.519531 67.933594 103.839844 C 68.984375 104.890625 69.691406 104.300781 70.847656 103.984375 C 71.804688 103.722656 72.546875 104.140625 73.453125 103.867188 C 74.496094 103.554688 74.277344 103.21875 75.257812 104.105469 C 76.851562 105.554688 78.125 106.578125 77.601562 109.070312 C 77.519531 109.464844 76.328125 112.660156 77.21875 112.246094 C 76.191406 112.722656 76.792969 114.359375 77.769531 114.46875 C 77.207031 114.785156 77.015625 114.167969 76.492188 114.15625 C 76.632812 114.160156 75.753906 116.097656 75.703125 116.285156 C 75.28125 117.894531 76.386719 119.335938 77.375 120.5 C 78.601562 121.953125 80.117188 123.121094 81.386719 124.535156 C 82.023438 125.242188 82.574219 125.996094 82.914062 126.894531 C 83.140625 127.511719 83.09375 128.320312 83.710938 128.734375 " fill-opacity="1" fill-rule="nonzero"/></g><g clip-path="url(#380e289a5d)"><path fill="#ffffff" d="M 155.3125 163.359375 C 155.835938 162.449219 155.5625 161.875 155.351562 160.945312 C 155.1875 160.230469 155.246094 159.484375 155.214844 158.761719 C 155.203125 158.394531 154.941406 157.628906 154.988281 157.34375 C 155.066406 156.871094 155.453125 156.578125 155.703125 156.199219 C 155.949219 155.835938 156.167969 154.605469 156.363281 154.421875 C 156.585938 154.210938 157.792969 153.742188 158.191406 153.734375 C 158.183594 153.859375 158.234375 153.957031 158.347656 154.019531 C 158.972656 154.046875 159.34375 152.992188 160.027344 153.203125 C 160.515625 153.351562 160.332031 153.84375 160.804688 154.046875 C 161.609375 154.390625 160.957031 153.421875 160.972656 153.289062 C 161.015625 152.953125 161.171875 152.101562 161.808594 152.160156 C 162.265625 152.203125 162.148438 153.066406 162.59375 152.757812 C 162.832031 152.59375 162.589844 151.992188 162.691406 151.664062 C 162.714844 151.585938 163.433594 150.792969 163.414062 150.773438 C 163.464844 151.046875 163.445312 151.3125 163.355469 151.578125 C 163.578125 151.316406 163.84375 151.066406 164.058594 150.816406 C 164.167969 150.695312 164.554688 150.886719 164.613281 150.742188 C 164.628906 150.695312 164.09375 150.234375 164.09375 150.039062 C 164.09375 149.335938 164.628906 149.628906 164.757812 149.578125 C 164.816406 149.183594 164.882812 146.953125 165.335938 148.695312 C 165.609375 148.3125 165.894531 147.921875 166.046875 147.464844 C 166.5625 147.335938 166.519531 147.75 166.917969 146.894531 C 167.085938 146.539062 166.839844 145.519531 166.921875 145.398438 C 168.832031 143.625 169.378906 148.253906 169.460938 149.523438 C 169.523438 150.539062 170.113281 152.753906 169.503906 153.597656 C 168.640625 154.792969 169.199219 152.960938 168.566406 152.804688 C 167.871094 152.632812 168.210938 154.984375 168.195312 155.164062 C 168.121094 155.925781 167.683594 156.273438 167.351562 156.910156 C 167.050781 157.488281 166.980469 158.117188 166.816406 158.742188 C 166.007812 161.800781 164.335938 164.8125 162.992188 167.671875 C 161.878906 170.03125 161.101562 172.917969 159.5 175.007812 C 158.757812 175.976562 158.378906 175.734375 157.261719 175.929688 C 156.050781 176.140625 155.472656 177.113281 154.304688 176.320312 C 153.167969 175.546875 152.28125 174.46875 152.320312 173.027344 C 152.335938 172.457031 152.660156 171.941406 152.625 171.382812 C 152.570312 170.617188 152.238281 170.679688 152.09375 170.09375 C 151.792969 168.867188 152.097656 167.632812 152.863281 166.636719 C 153.667969 165.585938 154.382812 164.347656 155.3125 163.359375 " fill-opacity="1" fill-rule="nonzero"/></g></g></g></svg>