<svg xmlns="http://www.w3.org/2000/svg" xmlns:xlink="http://www.w3.org/1999/xlink" width="1366" zoomAndPan="magnify" viewBox="0 0 1024.5 576" height="768" preserveAspectRatio="xMidYMid meet" version="1.0"><defs><g/><clipPath id="59f524c076"><path d="M 0 0.140625 L 1024 0.140625 L 1024 575.859375 L 0 575.859375 Z M 0 0.140625 " clip-rule="nonzero"/></clipPath><clipPath id="6777e499e9"><path d="M 1.152344 0.980469 L 257 0.980469 L 257 257 L 1.152344 257 Z M 1.152344 0.980469 " clip-rule="nonzero"/></clipPath><clipPath id="d7e5475a1d"><path d="M 122 122 L 377.339844 122 L 377.339844 377.164062 L 122 377.164062 Z M 122 122 " clip-rule="nonzero"/></clipPath><clipPath id="79c0fdd01a"><path d="M 281.070312 257.699219 L 321.246094 257.699219 L 321.246094 362.886719 L 281.070312 362.886719 Z M 281.070312 257.699219 " clip-rule="nonzero"/></clipPath><clipPath id="766ff47a30"><path d="M 281.070312 269 L 315 269 L 315 329 L 281.070312 329 Z M 281.070312 269 " clip-rule="nonzero"/></clipPath><clipPath id="2b668b2ba3"><path d="M 424 249 L 890.09375 249 L 890.09375 382.472656 L 424 382.472656 Z M 424 249 " clip-rule="nonzero"/></clipPath><clipPath id="056a757c8f"><rect x="0" width="467" y="0" height="134"/></clipPath><clipPath id="4dd4dfd376"><rect x="0" width="891" y="0" height="383"/></clipPath></defs><g clip-path="url(#59f524c076)"><path fill="#ffffff" d="M 0 0.140625 L 1024 0.140625 L 1024 575.859375 L 0 575.859375 Z M 0 0.140625 " fill-opacity="1" fill-rule="nonzero"/><path fill="#ffffff" d="M 0 0.140625 L 1024 0.140625 L 1024 575.859375 L 0 575.859375 Z M 0 0.140625 " fill-opacity="1" fill-rule="nonzero"/></g><g transform="matrix(1, 0, 0, 1, 68, 84)"><g clip-path="url(#4dd4dfd376)"><g clip-path="url(#6777e499e9)"><path fill="#ec7414" d="M 37.117188 0.980469 C 17.226562 0.980469 1.152344 16.964844 1.152344 36.855469 L 1.152344 220.40625 C 1.152344 240.300781 17.226562 256.285156 37.117188 256.285156 L 162.039062 256.285156 C 163.777344 243.363281 160.261719 229.804688 152.386719 220.3125 C 146.734375 213.5 145.398438 208.675781 146.519531 199.484375 C 147.863281 188.425781 147.347656 187.558594 139.800781 187.558594 C 135.320312 187.558594 130.277344 185.199219 128.632812 182.257812 C 125.867188 177.316406 124.125 177.210938 105.445312 181.691406 C 79.429688 187.925781 69.664062 185.234375 53.015625 167.113281 C 41.199219 154.246094 39.71875 150.871094 38.441406 133.222656 C 36.769531 110.121094 41.90625 96.152344 55.382812 87.121094 C 60.394531 83.761719 64.554688 79.332031 64.5625 77.277344 C 64.578125 69.722656 80.929688 53.894531 88.789062 53.894531 C 93.09375 53.894531 100.804688 51.757812 105.824219 49.164062 C 110.84375 46.566406 120.414062 44.773438 127.117188 45.09375 C 133.824219 45.410156 141.433594 45.023438 144.058594 44.242188 C 147.46875 43.222656 148.765625 45.136719 148.695312 51.152344 C 148.609375 58.34375 151.296875 60.867188 167.246094 68.191406 C 184.769531 76.234375 186.132812 76.355469 189.957031 71.125 C 193.652344 66.070312 195.859375 65.996094 213.332031 69.703125 C 223.914062 71.949219 233.976562 72.890625 235.761719 71.789062 C 237.550781 70.683594 240.105469 73.03125 241.347656 76.992188 C 244.0625 85.667969 250.015625 98.574219 256.488281 110.976562 L 256.488281 36.855469 C 256.488281 16.964844 240.414062 0.980469 220.527344 0.980469 Z M 37.117188 0.980469 " fill-opacity="1" fill-rule="nonzero"/></g><g clip-path="url(#d7e5475a1d)"><path fill="#00227c" d="M 262.546875 122.148438 C 268.367188 132.394531 273.980469 141.023438 277.496094 144.394531 C 282.867188 149.535156 287.246094 155.714844 287.246094 158.117188 C 287.246094 161.5 290.472656 162.050781 301.535156 160.390625 C 313.289062 158.628906 315.828125 159.070312 315.828125 163.136719 C 315.828125 169.855469 302.984375 191.640625 296.898438 195.226562 C 284.40625 202.589844 264.320312 225.964844 265.855469 231.292969 C 266.746094 234.375 269.371094 243.816406 271.726562 252.308594 L 275.984375 267.738281 L 264.152344 277.296875 C 254.089844 285.375 252.230469 288.742188 252.230469 299.261719 C 252.230469 308.179688 250.925781 311.660156 247.496094 311.660156 C 244.796875 311.660156 242.671875 314.566406 242.671875 318.289062 C 242.671875 321.902344 241.382812 327.328125 239.738281 330.402344 C 234.832031 339.570312 213.441406 352.167969 199.230469 354.257812 C 186.136719 356.1875 185.84375 356.089844 182.007812 344.320312 C 179.867188 337.757812 175.503906 328.992188 172.261719 324.820312 C 169.015625 320.644531 166.28125 313.398438 166.203125 308.820312 C 166.125 304.242188 164.054688 294.800781 161.566406 287.804688 C 158.042969 277.910156 157.8125 272.535156 160.523438 263.476562 C 164.976562 248.621094 161.746094 231.589844 152.386719 220.3125 C 146.734375 213.5 145.398438 208.675781 146.519531 199.484375 C 147.863281 188.425781 147.347656 187.558594 139.800781 187.558594 C 135.320312 187.558594 130.277344 185.199219 128.632812 182.257812 C 127.152344 179.617188 125.9375 178.464844 122.289062 178.566406 L 122.289062 341.574219 C 122.289062 361.46875 138.367188 377.449219 158.253906 377.449219 L 341.664062 377.449219 C 361.550781 377.449219 377.625 361.46875 377.625 341.574219 L 377.625 158.023438 C 377.625 138.132812 361.550781 122.148438 341.664062 122.148438 Z M 262.546875 122.148438 " fill-opacity="1" fill-rule="nonzero"/></g><path fill="#ec7414" d="M 122.714844 178.386719 C 122.566406 178.4375 122.375 178.605469 122.273438 178.609375 L 122.273438 256.230469 L 162.066406 256.230469 C 163.804688 243.308594 160.21875 229.785156 152.339844 220.292969 C 146.6875 213.484375 145.363281 208.699219 146.480469 199.507812 C 147.828125 188.449219 147.394531 187.566406 139.847656 187.566406 C 135.371094 187.566406 130.328125 185.199219 128.683594 182.257812 C 127.261719 179.714844 126.046875 178.402344 122.714844 178.386719 Z M 122.714844 178.386719 " fill-opacity="1" fill-rule="nonzero"/><g clip-path="url(#79c0fdd01a)"><path fill="#ffffff" d="M 154.773438 239.691406 C 154.886719 240.085938 155.042969 240.140625 155.242188 239.855469 C 155.507812 240.261719 154.796875 241.460938 154.871094 242.019531 C 154.988281 242.886719 155.875 243.847656 156.324219 244.566406 C 157.355469 246.210938 158.523438 247.933594 158.730469 249.914062 C 159.023438 252.722656 157.722656 254.550781 158.972656 257.296875 C 159.925781 259.386719 161.179688 260.925781 160.929688 263.386719 C 160.503906 267.617188 156.644531 270.691406 154.933594 274.390625 C 153.824219 276.792969 153.164062 279.410156 152.757812 282.019531 C 152.59375 283.0625 152.449219 284.128906 152.402344 285.1875 C 152.390625 285.542969 152.703125 288.214844 151.929688 286.652344 C 152.316406 286.683594 152.097656 291.273438 152.171875 291.828125 C 152.609375 294.914062 154.949219 297.058594 156.605469 299.539062 C 158.792969 302.804688 160.8125 306.597656 162.671875 310.0625 C 164.476562 313.429688 163.847656 317.617188 164.8125 321.277344 C 165.738281 324.785156 165.839844 328.582031 167.175781 331.96875 C 168.539062 335.425781 171.359375 337.929688 173.277344 341.042969 C 175.28125 344.296875 177.320312 348.113281 178.433594 351.78125 C 178.726562 352.742188 179.765625 356.714844 177.519531 355.796875 C 177.195312 356.300781 179.078125 362.738281 179.503906 362.773438 C 179.871094 362.804688 179.15625 361.675781 180.613281 362.148438 C 182.144531 362.644531 183.09375 363.96875 184.933594 364.097656 C 188.863281 364.367188 191.9375 361.578125 195.625 361.480469 C 198.910156 361.394531 202.65625 362.730469 205.867188 362.046875 C 207.371094 361.726562 206.929688 361.300781 207.957031 360.832031 C 208.910156 360.394531 210.050781 360.394531 211.113281 360.160156 C 217.875 358.65625 223.613281 352.664062 227.488281 347.246094 C 228.566406 345.742188 229.464844 344.082031 230.726562 342.71875 C 232.027344 341.316406 233.785156 340.457031 235.039062 339.007812 C 237.433594 336.242188 237.785156 332.269531 238.605469 328.847656 C 237.996094 330.011719 237.402344 328.914062 236.933594 328.355469 C 238.027344 328.460938 239.675781 325.855469 240.746094 325.335938 C 242.238281 324.617188 243.964844 324.585938 245.445312 323.84375 C 246.125 323.507812 251.179688 320.3125 249.804688 319.554688 C 249.359375 319.871094 249.050781 320.285156 248.878906 320.804688 C 248.859375 318.078125 250.566406 315.691406 250.539062 312.964844 C 250.507812 310.207031 248.84375 307.84375 248.558594 305.164062 C 248.082031 300.71875 252.683594 299.976562 254.730469 296.839844 C 255.257812 298.640625 256.441406 295.867188 256.796875 295.390625 C 258.347656 293.296875 260.746094 292.238281 263.074219 291.246094 C 267.703125 289.273438 272.660156 286.910156 274.582031 281.878906 C 275.730469 278.871094 274.863281 275.660156 275.039062 272.53125 C 275.21875 269.4375 276.355469 266.535156 276.632812 263.527344 C 276.832031 261.355469 275.558594 260.152344 274.539062 258.363281 C 272.988281 255.628906 272.300781 252.558594 272.523438 249.433594 C 272.726562 246.628906 272.695312 245.378906 271.4375 242.855469 C 270.199219 240.378906 270.777344 238.867188 271.875 236.371094 C 274.347656 230.773438 277.332031 226.285156 281.527344 221.871094 C 285.472656 217.71875 288.699219 213.101562 292.851562 209.097656 C 296.863281 205.222656 301.875 202.511719 305.210938 197.945312 C 307.449219 194.878906 309.648438 191.644531 311.667969 188.429688 C 313.3125 185.828125 314.164062 182.882812 315.421875 180.09375 C 316.84375 176.933594 318.824219 173.933594 319.304688 170.433594 C 319.519531 168.875 318.972656 165.671875 321.339844 165.578125 C 319.59375 164.230469 321.683594 158.324219 318.507812 158.644531 C 317.167969 158.777344 315.136719 160.828125 313.671875 161.34375 C 311.792969 162.011719 309.617188 162.289062 308.5625 164.234375 C 308.351562 161.777344 305.816406 162.621094 304.339844 163.25 C 301.910156 164.285156 299.71875 164.285156 297.207031 164.9375 C 294.363281 165.671875 292.671875 166.988281 290.097656 164.742188 C 288.492188 163.34375 287.558594 161.117188 285.015625 161.882812 C 284.699219 160.277344 287.222656 159.996094 287.648438 158.648438 C 288.300781 156.570312 285.378906 155.042969 284.136719 153.964844 C 282.039062 152.148438 280.4375 149.75 278.132812 148.164062 C 276.125 146.777344 273.347656 146.21875 272.050781 143.96875 C 271.871094 144.566406 271.773438 145.171875 271.742188 145.792969 C 270.585938 143.878906 269.5 141.9375 268.710938 139.835938 C 267.972656 137.867188 267.582031 135.683594 266.277344 133.972656 C 263.683594 130.574219 260.273438 130.203125 259.222656 125.523438 C 258.367188 121.710938 258.335938 117.382812 255.316406 114.480469 C 253.945312 113.167969 251.941406 112.539062 250.886719 110.894531 C 250.460938 110.234375 249.976562 109.230469 250.167969 108.433594 C 250.476562 107.164062 250.570312 108.339844 251.125 107.585938 C 251.386719 107.226562 247.21875 102.796875 246.765625 102.203125 C 243.769531 98.269531 241.945312 93.625 238.847656 89.746094 C 237.433594 87.972656 236.027344 86.292969 235.316406 84.097656 C 234.671875 82.089844 234.730469 79.910156 233.503906 78.113281 C 232.300781 76.339844 227.773438 72.820312 226.464844 76.265625 C 228.03125 75.335938 224.960938 76.523438 224.421875 76.742188 C 221.832031 77.777344 219.628906 78.089844 216.859375 77.621094 C 210.707031 76.574219 204.367188 75.273438 198.570312 72.929688 C 195.007812 71.488281 188.875 68.53125 186.523438 73.363281 C 185.015625 76.464844 186.503906 83.375 180.621094 81.382812 C 178.203125 80.566406 176.125 79.386719 173.605469 78.742188 C 170.957031 78.070312 169.40625 77.320312 167.546875 75.339844 C 163.816406 71.367188 159.917969 71.988281 155 70.714844 C 151.410156 69.785156 145.558594 67.1875 149.542969 63.289062 C 151.613281 61.265625 150.5625 60.992188 150.394531 58.496094 C 150.277344 56.757812 152.171875 55.171875 150.960938 53.773438 C 150.042969 52.71875 146.679688 52.3125 145.433594 52.367188 C 142.238281 52.503906 139.027344 53.335938 135.839844 53.644531 C 129.730469 54.242188 123.796875 53.277344 117.734375 54.667969 C 112.460938 55.882812 107.441406 59.226562 102.082031 59.726562 C 100.089844 59.914062 97.953125 59.855469 95.996094 59.4375 C 93.976562 59.007812 92.234375 56.707031 90.324219 56.652344 C 88.070312 56.585938 86.523438 59.6875 85.453125 61.238281 C 84.089844 63.214844 82.550781 64.714844 80.539062 66.03125 C 76.230469 68.847656 72.34375 70.765625 70.441406 75.878906 C 68.691406 80.566406 67.777344 84.871094 62.550781 86.742188 C 60.171875 87.597656 57.671875 87.886719 55.648438 89.53125 C 53.617188 91.179688 52.101562 93.59375 50.417969 95.570312 C 45.910156 100.863281 41.710938 106.386719 37.621094 112 C 35.960938 114.285156 34.757812 116.335938 35.722656 119.183594 C 36.769531 122.277344 37.109375 124.1875 36.9375 127.523438 C 36.78125 130.605469 36.320312 133.632812 35.222656 136.53125 C 34.054688 139.625 32.085938 142.492188 31.335938 145.734375 C 30.851562 147.910156 30.863281 150.683594 32.96875 152.003906 C 33.679688 152.445312 37.027344 153.554688 37.5 152.34375 C 36.417969 152.394531 35.351562 152.785156 34.285156 152.820312 C 35.046875 152.796875 31.703125 152.769531 32.242188 152.574219 C 31.082031 152.984375 30.898438 154.457031 31.179688 155.808594 C 31.511719 157.390625 32.78125 159.175781 34.433594 159.546875 C 35.671875 159.824219 37.695312 158.5 38.742188 159.417969 C 37.277344 158.132812 34.199219 163.714844 37.753906 163.191406 C 37.488281 163.488281 37.328125 163.835938 37.277344 164.230469 C 37.371094 164.53125 38.867188 163.820312 39.097656 163.824219 C 38.144531 167.074219 42.839844 169.742188 44.269531 172.128906 C 45.289062 173.828125 45.484375 175.890625 46.367188 177.65625 C 47.460938 179.835938 49.261719 181.191406 51.140625 182.644531 C 54.832031 185.496094 58.09375 189.042969 62.003906 191.589844 C 66.816406 194.722656 70.785156 193.175781 75.851562 191.683594 C 80.949219 190.175781 84.988281 191.277344 90.007812 192.21875 C 92.820312 192.746094 94.246094 191.488281 96.773438 190.671875 C 99.046875 189.9375 101.1875 189.039062 103.429688 188.1875 C 107.9375 186.480469 111.941406 184.976562 116.894531 185.320312 C 118.867188 185.457031 120.519531 185.980469 122.023438 187.296875 C 122.34375 187.578125 124.355469 190.027344 124.566406 189.835938 C 123.25 190.5 124.8125 192.753906 125.410156 193.355469 C 127.359375 195.3125 128.679688 194.214844 130.828125 193.621094 C 132.609375 193.132812 133.992188 193.914062 135.679688 193.40625 C 137.621094 192.824219 137.214844 192.195312 139.035156 193.851562 C 142.003906 196.550781 144.378906 198.449219 143.402344 203.089844 C 143.246094 203.828125 141.03125 209.769531 142.6875 209.003906 C 140.777344 209.882812 141.898438 212.9375 143.714844 213.132812 C 142.664062 213.722656 142.3125 212.574219 141.339844 212.558594 C 141.601562 212.5625 139.960938 216.171875 139.867188 216.519531 C 139.085938 219.515625 141.140625 222.195312 142.976562 224.363281 C 145.261719 227.070312 148.082031 229.242188 150.445312 231.875 C 151.628906 233.1875 152.660156 234.59375 153.289062 236.265625 C 153.714844 237.417969 153.628906 238.921875 154.773438 239.691406 " fill-opacity="1" fill-rule="nonzero"/></g><g clip-path="url(#766ff47a30)"><path fill="#ffffff" d="M 288.046875 304.136719 C 289.019531 302.445312 288.515625 301.375 288.117188 299.644531 C 287.8125 298.3125 287.925781 296.925781 287.867188 295.578125 C 287.839844 294.894531 287.359375 293.46875 287.445312 292.941406 C 287.585938 292.0625 288.308594 291.515625 288.777344 290.8125 C 289.230469 290.132812 289.640625 287.847656 290.003906 287.503906 C 290.414062 287.109375 292.664062 286.242188 293.410156 286.21875 C 293.390625 286.460938 293.484375 286.636719 293.695312 286.75 C 294.859375 286.804688 295.550781 284.84375 296.824219 285.230469 C 297.730469 285.507812 297.390625 286.429688 298.269531 286.804688 C 299.769531 287.445312 298.554688 285.640625 298.585938 285.394531 C 298.660156 284.765625 298.953125 283.179688 300.136719 283.292969 C 300.992188 283.375 300.773438 284.976562 301.597656 284.40625 C 302.042969 284.097656 301.59375 282.984375 301.78125 282.371094 C 301.828125 282.222656 303.164062 280.75 303.125 280.710938 C 303.21875 281.21875 303.183594 281.71875 303.015625 282.207031 C 303.429688 281.722656 303.925781 281.257812 304.328125 280.792969 C 304.53125 280.566406 305.25 280.925781 305.355469 280.652344 C 305.390625 280.566406 304.386719 279.710938 304.386719 279.34375 C 304.394531 278.035156 305.386719 278.582031 305.625 278.488281 C 305.734375 277.753906 305.859375 273.601562 306.707031 276.847656 C 307.210938 276.128906 307.742188 275.402344 308.023438 274.558594 C 308.988281 274.3125 308.90625 275.085938 309.652344 273.492188 C 309.960938 272.832031 309.5 270.9375 309.65625 270.710938 C 313.210938 267.40625 314.226562 276.019531 314.378906 278.386719 C 314.5 280.273438 315.59375 284.394531 314.460938 285.96875 C 312.855469 288.195312 313.898438 284.78125 312.714844 284.492188 C 311.421875 284.171875 312.058594 288.550781 312.027344 288.886719 C 311.886719 290.304688 311.074219 290.949219 310.457031 292.136719 C 309.894531 293.210938 309.761719 294.382812 309.457031 295.542969 C 307.957031 301.238281 304.847656 306.847656 302.339844 312.164062 C 300.265625 316.558594 298.824219 321.929688 295.84375 325.820312 C 294.460938 327.625 293.753906 327.171875 291.679688 327.535156 C 289.417969 327.933594 288.34375 329.742188 286.167969 328.261719 C 284.054688 326.820312 282.40625 324.820312 282.476562 322.136719 C 282.503906 321.074219 283.113281 320.113281 283.042969 319.074219 C 282.945312 317.648438 282.320312 317.769531 282.054688 316.675781 C 281.5 314.390625 282.066406 312.097656 283.488281 310.238281 C 284.984375 308.28125 286.316406 305.980469 288.046875 304.136719 " fill-opacity="1" fill-rule="nonzero"/></g><g clip-path="url(#2b668b2ba3)"><g transform="matrix(1, 0, 0, 1, 424, 249)"><g clip-path="url(#056a757c8f)"><g fill="#00227c" fill-opacity="1"><g transform="translate(0.195587, 103.397723)"><g><path d="M 50.140625 0 L 45.125 -13.484375 L 17.953125 -13.484375 L 12.9375 0 L 0 0 L 25.25 -65.453125 L 37.828125 -65.453125 L 63.078125 0 Z M 22.609375 -25.703125 L 40.5625 -25.703125 L 31.546875 -49.765625 Z M 22.609375 -25.703125 "/></g></g></g><g fill="#00227c" fill-opacity="1"><g transform="translate(63.27474, 103.397723)"><g><path d="M 0.640625 -38.109375 L 0.640625 -48.40625 L 5.015625 -48.40625 L 5.015625 -51.328125 C 5.015625 -55.703125 5.332031 -59.085938 5.96875 -61.484375 C 6.601562 -63.878906 7.753906 -65.625 9.421875 -66.71875 C 11.097656 -67.8125 13.546875 -68.359375 16.765625 -68.359375 C 19.679688 -68.359375 22.539062 -67.785156 25.34375 -66.640625 L 25.34375 -57.34375 C 23.582031 -57.882812 22.125 -58.15625 20.96875 -58.15625 C 19.8125 -58.15625 18.972656 -58.003906 18.453125 -57.703125 C 17.941406 -57.398438 17.59375 -56.851562 17.40625 -56.0625 C 17.226562 -55.269531 17.140625 -53.992188 17.140625 -52.234375 L 17.140625 -48.40625 L 24.796875 -48.40625 L 24.796875 -38.109375 L 17.140625 -38.109375 L 17.140625 0 L 5.015625 0 L 5.015625 -38.109375 Z M 0.640625 -38.109375 "/></g></g></g><g fill="#00227c" fill-opacity="1"><g transform="translate(88.798067, 103.397723)"><g><path d="M 16.59375 -48.40625 L 16.59375 -42.296875 C 17.6875 -44.722656 19.144531 -46.5625 20.96875 -47.8125 C 22.789062 -49.0625 24.734375 -49.6875 26.796875 -49.6875 C 28.742188 -49.6875 30.507812 -49.257812 32.09375 -48.40625 L 28.34375 -38.015625 C 27.007812 -38.679688 25.828125 -39.015625 24.796875 -39.015625 C 22.785156 -39.015625 21.1875 -37.859375 20 -35.546875 C 18.820312 -33.242188 18.234375 -29.78125 18.234375 -25.15625 L 18.234375 0 L 6.109375 0 L 6.109375 -48.40625 Z M 16.59375 -48.40625 "/></g></g></g><g fill="#00227c" fill-opacity="1"><g transform="translate(120.793429, 103.397723)"><g><path d="M 12.21875 -52.59375 C 10.757812 -52.59375 9.4375 -52.972656 8.25 -53.734375 C 7.0625 -54.492188 6.132812 -55.523438 5.46875 -56.828125 C 4.800781 -58.140625 4.46875 -59.523438 4.46875 -60.984375 C 4.46875 -62.316406 4.816406 -63.5625 5.515625 -64.71875 C 6.210938 -65.875 7.15625 -66.769531 8.34375 -67.40625 C 9.53125 -68.039062 10.820312 -68.359375 12.21875 -68.359375 C 13.675781 -68.359375 14.976562 -67.992188 16.125 -67.265625 C 17.28125 -66.535156 18.207031 -65.5625 18.90625 -64.34375 C 19.613281 -63.132812 19.96875 -61.800781 19.96875 -60.34375 C 19.96875 -58.945312 19.613281 -57.65625 18.90625 -56.46875 C 18.207031 -55.28125 17.265625 -54.335938 16.078125 -53.640625 C 14.898438 -52.941406 13.613281 -52.59375 12.21875 -52.59375 Z M 6.203125 -48.40625 L 18.328125 -48.40625 L 18.328125 0 L 6.203125 0 Z M 6.203125 -48.40625 "/></g></g></g><g fill="#00227c" fill-opacity="1"><g transform="translate(144.402445, 103.397723)"><g><path d="M 60.25 5.109375 L 54.421875 -2.375 C 49.554688 0.238281 44.269531 1.546875 38.5625 1.546875 C 32.175781 1.546875 26.367188 0.015625 21.140625 -3.046875 C 15.921875 -6.117188 11.804688 -10.28125 8.796875 -15.53125 C 5.785156 -20.789062 4.28125 -26.550781 4.28125 -32.8125 C 4.28125 -39.132812 5.8125 -44.921875 8.875 -50.171875 C 11.945312 -55.429688 16.097656 -59.566406 21.328125 -62.578125 C 26.554688 -65.585938 32.238281 -67.09375 38.375 -67.09375 C 44.394531 -67.09375 50 -65.585938 55.1875 -62.578125 C 60.382812 -59.566406 64.546875 -55.429688 67.671875 -50.171875 C 70.804688 -44.921875 72.375 -39.046875 72.375 -32.546875 C 72.375 -28.171875 71.613281 -24.019531 70.09375 -20.09375 C 68.570312 -16.175781 66.445312 -12.671875 63.71875 -9.578125 L 75.109375 5.109375 Z M 38.46875 -10.390625 C 41.257812 -10.390625 44.054688 -10.96875 46.859375 -12.125 L 35.09375 -27.25 L 50.046875 -27.25 L 55.875 -19.6875 C 57.15625 -21.570312 58.128906 -23.609375 58.796875 -25.796875 C 59.460938 -27.984375 59.796875 -30.265625 59.796875 -32.640625 C 59.796875 -36.648438 58.867188 -40.367188 57.015625 -43.796875 C 55.160156 -47.234375 52.59375 -49.984375 49.3125 -52.046875 C 46.03125 -54.117188 42.351562 -55.15625 38.28125 -55.15625 C 34.394531 -55.15625 30.8125 -54.195312 27.53125 -52.28125 C 24.25 -50.363281 21.648438 -47.6875 19.734375 -44.25 C 17.816406 -40.820312 16.859375 -36.921875 16.859375 -32.546875 C 16.859375 -28.234375 17.84375 -24.390625 19.8125 -21.015625 C 21.789062 -17.640625 24.421875 -15.023438 27.703125 -13.171875 C 30.992188 -11.316406 34.582031 -10.390625 38.46875 -10.390625 Z M 38.46875 -10.390625 "/></g></g></g><g fill="#00227c" fill-opacity="1"><g transform="translate(220.972491, 103.397723)"><g><path d="M 29.078125 1.28125 C 24.335938 1.28125 20.019531 0.140625 16.125 -2.140625 C 12.238281 -4.421875 9.1875 -7.519531 6.96875 -11.4375 C 4.75 -15.351562 3.640625 -19.625 3.640625 -24.25 C 3.640625 -28.925781 4.796875 -33.207031 7.109375 -37.09375 C 9.421875 -40.988281 12.519531 -44.0625 16.40625 -46.3125 C 20.289062 -48.5625 24.515625 -49.6875 29.078125 -49.6875 C 33.640625 -49.6875 37.863281 -48.5625 41.75 -46.3125 C 45.632812 -44.0625 48.734375 -40.988281 51.046875 -37.09375 C 53.359375 -33.207031 54.515625 -28.925781 54.515625 -24.25 C 54.515625 -19.625 53.40625 -15.351562 51.1875 -11.4375 C 48.96875 -7.519531 45.910156 -4.421875 42.015625 -2.140625 C 38.128906 0.140625 33.816406 1.28125 29.078125 1.28125 Z M 29.078125 -10.203125 C 31.503906 -10.203125 33.734375 -10.78125 35.765625 -11.9375 C 37.804688 -13.09375 39.40625 -14.734375 40.5625 -16.859375 C 41.71875 -18.984375 42.296875 -21.414062 42.296875 -24.15625 C 42.296875 -26.894531 41.734375 -29.328125 40.609375 -31.453125 C 39.484375 -33.578125 37.914062 -35.226562 35.90625 -36.40625 C 33.90625 -37.59375 31.628906 -38.1875 29.078125 -38.1875 C 26.523438 -38.1875 24.242188 -37.59375 22.234375 -36.40625 C 20.234375 -35.226562 18.671875 -33.578125 17.546875 -31.453125 C 16.421875 -29.328125 15.859375 -26.894531 15.859375 -24.15625 C 15.859375 -21.414062 16.4375 -18.984375 17.59375 -16.859375 C 18.75 -14.734375 20.34375 -13.09375 22.375 -11.9375 C 24.414062 -10.78125 26.648438 -10.203125 29.078125 -10.203125 Z M 29.078125 -10.203125 "/></g></g></g><g fill="#00227c" fill-opacity="1"><g transform="translate(279.12924, 103.397723)"><g><path d="M 17.046875 -67.09375 L 17.046875 0 L 4.921875 0 L 4.921875 -67.09375 Z M 17.046875 -67.09375 "/></g></g></g><g fill="#00227c" fill-opacity="1"><g transform="translate(301.006415, 103.397723)"><g><path d="M 17.046875 -67.09375 L 17.046875 0 L 4.921875 0 L 4.921875 -67.09375 Z M 17.046875 -67.09375 "/></g></g></g><g fill="#00227c" fill-opacity="1"><g transform="translate(322.88359, 103.397723)"><g><path d="M 28.984375 1.28125 C 23.941406 1.28125 19.503906 0.15625 15.671875 -2.09375 C 11.847656 -4.34375 8.882812 -7.410156 6.78125 -11.296875 C 4.6875 -15.191406 3.640625 -19.507812 3.640625 -24.25 C 3.640625 -28.6875 4.671875 -32.847656 6.734375 -36.734375 C 8.804688 -40.617188 11.738281 -43.75 15.53125 -46.125 C 19.332031 -48.5 23.757812 -49.6875 28.8125 -49.6875 C 33.851562 -49.6875 38.316406 -48.5625 42.203125 -46.3125 C 46.097656 -44.0625 49.125 -40.945312 51.28125 -36.96875 C 53.4375 -32.988281 54.515625 -28.472656 54.515625 -23.421875 C 54.515625 -22.328125 54.484375 -21.414062 54.421875 -20.6875 L 15.40625 -20.6875 C 16.007812 -17.164062 17.539062 -14.414062 20 -12.4375 C 22.46875 -10.46875 25.460938 -9.484375 28.984375 -9.484375 C 31.722656 -9.484375 34.109375 -9.90625 36.140625 -10.75 C 38.179688 -11.601562 40.296875 -12.972656 42.484375 -14.859375 L 51.140625 -7.65625 C 45.609375 -1.695312 38.222656 1.28125 28.984375 1.28125 Z M 42.296875 -30.265625 C 41.503906 -33.054688 39.90625 -35.269531 37.5 -36.90625 C 35.101562 -38.550781 32.265625 -39.375 28.984375 -39.375 C 25.953125 -39.375 23.3125 -38.613281 21.0625 -37.09375 C 18.8125 -35.582031 17.109375 -33.304688 15.953125 -30.265625 Z M 42.296875 -30.265625 "/></g></g></g><g fill="#00227c" fill-opacity="1"><g transform="translate(380.037598, 103.397723)"><g><path d="M 29.625 1.28125 C 24.457031 1.28125 19.914062 0.1875 16 -2 C 12.082031 -4.1875 9.039062 -7.191406 6.875 -11.015625 C 4.71875 -14.847656 3.640625 -19.140625 3.640625 -23.890625 C 3.640625 -28.628906 4.765625 -32.957031 7.015625 -36.875 C 9.265625 -40.789062 12.394531 -43.90625 16.40625 -46.21875 C 20.414062 -48.53125 24.941406 -49.6875 29.984375 -49.6875 C 34.671875 -49.6875 38.863281 -48.847656 42.5625 -47.171875 C 46.269531 -45.503906 49.160156 -43.238281 51.234375 -40.375 L 42.296875 -33.09375 C 40.648438 -34.726562 38.835938 -35.984375 36.859375 -36.859375 C 34.890625 -37.742188 32.597656 -38.1875 29.984375 -38.1875 C 27.191406 -38.1875 24.71875 -37.546875 22.5625 -36.265625 C 20.40625 -34.992188 18.75 -33.28125 17.59375 -31.125 C 16.4375 -28.96875 15.859375 -26.554688 15.859375 -23.890625 C 15.859375 -21.328125 16.421875 -19 17.546875 -16.90625 C 18.671875 -14.8125 20.28125 -13.171875 22.375 -11.984375 C 24.476562 -10.796875 26.894531 -10.203125 29.625 -10.203125 C 32.238281 -10.203125 34.578125 -10.644531 36.640625 -11.53125 C 38.710938 -12.414062 40.597656 -13.707031 42.296875 -15.40625 L 50.953125 -7.75 C 48.648438 -4.957031 45.6875 -2.753906 42.0625 -1.140625 C 38.445312 0.472656 34.300781 1.28125 29.625 1.28125 Z M 29.625 1.28125 "/></g></g></g><g fill="#00227c" fill-opacity="1"><g transform="translate(435.459766, 103.397723)"><g><path d="M 7.5625 -37.921875 L 1.375 -37.921875 L 1.375 -48.40625 L 7.5625 -48.40625 L 7.5625 -66.265625 L 19.6875 -66.265625 L 19.6875 -48.40625 L 26.890625 -48.40625 L 26.890625 -37.921875 L 19.6875 -37.921875 L 19.6875 0 L 7.5625 0 Z M 7.5625 -37.921875 "/></g></g></g></g></g></g></g></g></svg>